# This file uses centimeters as units for non-parametric coordinates.

mtllib BasicTile.mtl
g default
v 5.000002 -0.500000 -8.660254
v -4.999999 -0.500000 -8.660255
v -10.000000 -0.500000 -0.000001
v -5.000001 -0.500000 8.660254
v 5.000000 -0.500000 8.660254
v 10.000000 -0.500000 0.000000
v 5.000002 0.500000 -8.660254
v -4.999999 0.500000 -8.660255
v -10.000000 0.500000 -0.000001
v -5.000001 0.500000 8.660254
v 5.000000 0.500000 8.660254
v 10.000000 0.500000 0.000000
v 4.309855 -0.077978 -7.464883
v -4.309851 -0.077978 -7.464885
v 0.000000 -0.077978 0.000000
v -8.619705 -0.077978 -0.000001
v -4.309853 -0.077978 7.464883
v 4.309852 -0.077978 7.464884
v 8.619705 -0.077978 0.000000
v 4.309855 0.922022 -7.464883
v -4.309851 0.922022 -7.464885
v 0.000000 0.922022 0.000000
v -8.619705 0.922022 -0.000001
v -4.309854 0.922022 7.464883
v 4.309852 0.922022 7.464884
v 8.619705 0.922022 0.000000
vt 0.766117 0.851847
vt 0.766117 0.851847
vt 0.998663 0.851847
vt 0.998834 0.998948
vt 0.764971 0.997656
vt 0.766117 0.851847
vt 0.998834 0.998948
vt 0.998834 0.998948
vt 0.766117 0.851847
vt 0.998834 0.998948
vt 0.766117 0.851847
vt 0.998834 0.998948
vt 0.766117 0.851847
vt 0.998834 0.998948
vt 0.006597 0.957398
vt 0.006597 0.957398
vt 0.160911 0.759242
vt 0.006597 0.957398
vt 0.006597 0.957398
vt 0.006597 0.957398
vt 0.006597 0.957398
vt 0.925150 0.431234
vt 0.712974 0.800955
vt 0.498874 0.432346
vt 0.286699 0.802065
vt 0.072601 0.433455
vt 0.284776 0.063736
vt 0.711052 0.062626
vt 0.295916 0.989790
vt 0.295916 0.989790
vt 0.295916 0.989790
vt 0.295916 0.989790
vt 0.295916 0.989790
vt 0.295916 0.989790
vt 0.993411 0.431058
vt 0.747258 0.859982
vt 0.252723 0.861270
vt 0.004340 0.433633
vt 0.250492 0.004709
vt 0.745027 0.003421
vt 0.998663 0.851847
vt 0.764971 0.997656
vt 0.764971 0.997656
vt 0.998663 0.851847
vt 0.764971 0.997656
vt 0.998663 0.851847
vt 0.764971 0.997656
vt 0.998663 0.851847
vt 0.764971 0.997656
vt 0.998663 0.851847
vt 0.296039 0.955936
vt 0.006500 0.989780
vt 0.006500 0.989780
vt 0.296039 0.955936
vt 0.160911 0.759242
vt 0.160911 0.759242
vt 0.296039 0.955936
vt 0.006500 0.989780
vt 0.296039 0.955936
vt 0.006500 0.989780
vt 0.160911 0.759242
vt 0.296039 0.955936
vt 0.006500 0.989780
vt 0.160911 0.759242
vt 0.006500 0.989780
vt 0.160911 0.759242
vt 0.296039 0.955936
vn 0.000000 0.000000 -1.000000
vn 0.000000 0.000000 -1.000000
vn 0.000000 0.000000 -1.000000
vn 0.000000 0.000000 -1.000000
vn -0.866025 0.000000 -0.500000
vn -0.866025 0.000000 -0.500000
vn -0.866025 0.000000 -0.500000
vn -0.866025 0.000000 -0.500000
vn -0.866026 0.000000 0.500000
vn -0.866026 0.000000 0.500000
vn -0.866026 0.000000 0.500000
vn -0.866026 0.000000 0.500000
vn 0.000000 0.000000 1.000000
vn 0.000000 0.000000 1.000000
vn 0.000000 0.000000 1.000000
vn 0.000000 0.000000 1.000000
vn 0.866025 0.000000 0.500000
vn 0.866025 0.000000 0.500000
vn 0.866025 0.000000 0.500000
vn 0.866025 0.000000 0.500000
vn 0.866026 0.000000 -0.500000
vn 0.866026 0.000000 -0.500000
vn 0.866026 0.000000 -0.500000
vn 0.866026 0.000000 -0.500000
vn 0.000000 -1.000000 0.000000
vn 0.000000 -1.000000 0.000000
vn 0.000000 -1.000000 0.000000
vn 0.000000 -1.000000 0.000000
vn 0.000000 -1.000000 0.000000
vn 0.000000 -1.000000 0.000000
vn 0.000000 -1.000000 0.000000
vn 0.000000 -1.000000 0.000000
vn 0.000000 -1.000000 0.000000
vn 0.000000 -1.000000 0.000000
vn 0.000000 -1.000000 0.000000
vn 0.000000 -1.000000 0.000000
vn 0.000000 -1.000000 0.000000
vn 0.000000 -1.000000 0.000000
vn 0.000000 -1.000000 0.000000
vn 0.000000 -1.000000 0.000000
vn 0.000000 -1.000000 0.000000
vn 0.000000 -1.000000 0.000000
vn 0.000000 1.000000 0.000000
vn 0.000000 1.000000 0.000000
vn 0.000000 1.000000 0.000000
vn 0.000000 1.000000 0.000000
vn 0.000000 1.000000 0.000000
vn 0.000000 1.000000 0.000000
vn 0.000000 1.000000 0.000000
vn 0.000000 1.000000 0.000000
vn 0.000000 1.000000 0.000000
vn 0.000000 1.000000 0.000000
vn 0.000000 1.000000 0.000000
vn 0.000000 1.000000 0.000000
vn 0.000000 1.000000 0.000000
vn 0.000000 1.000000 0.000000
vn 0.000000 1.000000 0.000000
vn 0.000000 1.000000 0.000000
vn 0.000000 1.000000 0.000000
vn 0.000000 1.000000 0.000000
vn 0.000000 -0.942959 0.332909
vn 0.000000 -0.942959 0.332909
vn 0.000000 -0.942959 0.332909
vn 0.000000 -0.942959 0.332909
vn 0.288307 -0.942959 0.166454
vn 0.288307 -0.942959 0.166454
vn 0.288307 -0.942959 0.166454
vn 0.288307 -0.942959 0.166454
vn 0.288307 -0.942959 -0.166454
vn 0.288307 -0.942959 -0.166454
vn 0.288307 -0.942959 -0.166454
vn 0.288307 -0.942959 -0.166454
vn 0.000000 -0.942959 -0.332909
vn 0.000000 -0.942959 -0.332909
vn 0.000000 -0.942959 -0.332909
vn 0.000000 -0.942959 -0.332909
vn -0.288307 -0.942959 -0.166454
vn -0.288307 -0.942959 -0.166454
vn -0.288307 -0.942959 -0.166454
vn -0.288307 -0.942959 -0.166454
vn -0.288307 -0.942959 0.166454
vn -0.288307 -0.942959 0.166454
vn -0.288307 -0.942959 0.166454
vn -0.288307 -0.942959 0.166454
vn 0.000000 0.942959 -0.332909
vn 0.000000 0.942959 -0.332909
vn 0.000000 0.942959 -0.332909
vn 0.000000 0.942959 -0.332909
vn -0.288307 0.942959 -0.166454
vn -0.288307 0.942959 -0.166454
vn -0.288307 0.942959 -0.166454
vn -0.288307 0.942959 -0.166454
vn -0.288307 0.942959 0.166454
vn -0.288307 0.942959 0.166454
vn -0.288307 0.942959 0.166454
vn -0.288307 0.942959 0.166454
vn 0.000000 0.942959 0.332909
vn 0.000000 0.942959 0.332909
vn 0.000000 0.942959 0.332909
vn 0.000000 0.942959 0.332909
vn 0.288307 0.942959 0.166454
vn 0.288307 0.942959 0.166454
vn 0.288307 0.942959 0.166454
vn 0.288307 0.942959 0.166454
vn 0.288307 0.942959 -0.166454
vn 0.288307 0.942959 -0.166454
vn 0.288307 0.942959 -0.166454
vn 0.288307 0.942959 -0.166454
s off
g BasicTile:pCylinder1
usemtl initialShadingGroup
f 1/42/1 2/2/2 8/3/3 7/4/4
f 2/5/5 3/6/6 9/46/7 8/8/8
f 3/45/9 4/9/10 10/48/11 9/7/12
f 4/47/13 5/11/14 11/50/15 10/10/16
f 5/49/17 6/13/18 12/44/19 11/12/20
f 6/43/21 1/1/22 7/41/23 12/14/24
f 14/57/25 13/16/26 15/55/27
f 16/59/28 14/15/29 15/56/30
f 17/51/31 16/18/32 15/61/33
f 18/62/34 17/19/35 15/64/36
f 19/67/37 18/20/38 15/66/39
f 13/54/40 19/21/41 15/17/42
f 20/22/43 21/23/44 22/24/45
f 21/23/46 23/25/47 22/24/48
f 23/25/49 24/26/50 22/24/51
f 24/26/52 25/27/53 22/24/54
f 25/27/55 26/28/56 22/24/57
f 26/28/58 20/22/59 22/24/60
f 2/29/61 1/53/62 13/16/63 14/57/64
f 3/31/65 2/58/66 14/15/67 16/59/68
f 4/32/69 3/60/70 16/18/71 17/51/72
f 5/33/73 4/52/74 17/19/75 18/62/76
f 6/34/77 5/63/78 18/20/79 19/67/80
f 1/30/81 6/65/82 19/21/83 13/54/84
f 7/35/85 8/36/86 21/23/87 20/22/88
f 8/36/89 9/37/90 23/25/91 21/23/92
f 9/37/93 10/38/94 24/26/95 23/25/96
f 10/38/97 11/39/98 25/27/99 24/26/100
f 11/39/101 12/40/102 26/28/103 25/27/104
f 12/40/105 7/35/106 20/22/107 26/28/108
